<?xml version="1.0" encoding="UTF-8"?>
<svg width="1263px" height="1019px" viewBox="0 0 1263 1019" version="1.1" xmlns="http://www.w3.org/2000/svg" xmlns:xlink="http://www.w3.org/1999/xlink">
    <!-- Generator: Sketch 52.6 (67491) - http://www.bohemiancoding.com/sketch -->
    <title>megaphone</title>
    <desc>Created with Sketch.</desc>
    <g id="megaphone" stroke="none" stroke-width="1" fill="none" fill-rule="evenodd">
        <path d="M1263,516.031179 C1215.98883,528.629479 1182.68092,573.023488 1169.87788,620.017147 C1157.07484,667.010806 1161.47589,716.804087 1166.87717,765.297544 C1172.27845,813.791 1178.67997,862.884376 1169.87788,910.777913 C1166.5771,929.175431 1160.37562,947.872908 1149.17296,962.370951 C1145.43265,967.259402 1141.06015,971.630273 1136.16987,975.369197 C1116.36517,990.267187 1084.0575,990.367174 1069.55405,970.169899 C1060.55191,957.771572 1060.25184,941.373785 1056.75101,926.475795 C1052.55001,908.478223 1043.44785,892.680355 1031.24495,879.482136 C1003.03825,848.986251 957.627465,832.188518 914.91732,832.588464 C853.602756,833.188383 796.089095,860.384713 740.07579,885.281354 C684.062485,910.177994 624.248278,933.77481 563.333809,926.775754 C521.723925,921.976402 479.513899,899.779397 463.31005,861.184605 C442.705156,812.191216 471.211927,754.399014 513.021858,721.503453 C531.826325,706.70545 549.630554,689.407784 569.935377,676.709497 C590.2402,664.011211 614.345925,655.112412 635.550962,642.414125 C674.160133,619.217255 709.168449,585.621788 727.57282,543.527468 C734.284806,528.149411 739.185527,512.043452 742.176289,495.533944 C747.108467,469.093082 747.446828,442.000458 743.176526,415.444751 C738.375386,385.248826 727.472796,355.852792 709.968639,330.656192 C684.562604,294.06113 642.15253,275.863586 598.042053,284.062479 C570.575004,289.095468 545.129169,301.900401 524.724638,320.957501 C514.1296,330.814575 505.210819,342.330377 498.318365,355.0529 C482.514612,384.648907 475.712996,420.744036 487.415776,453.039678 C489.714743,459.384996 492.951401,465.350362 497.018057,470.73729 C504.034417,480.401158 513.638599,487.887551 524.724638,492.334376 C531.506113,494.939302 538.792265,495.965138 546.029698,495.333971 C566.634593,493.434228 584.038727,477.536373 592.240675,458.538936 C600.442623,439.5415 600.542647,417.944414 597.44191,397.547166 C592.907524,368.285087 582.238667,340.311064 566.134474,315.458243 C549.930625,290.461616 531.42623,266.56484 507.020432,248.967215 C467.811119,220.77102 414.898551,209.272571 369.787836,226.570237 C295.270135,255.166379 268.763839,345.454195 281.56688,418.144387 C284.790265,436.334103 290.127675,454.085289 297.470658,471.03725 C313.474459,508.332217 353.68401,548.326821 394.893799,519.230747 C408.697078,509.532056 417.299121,494.634066 423.600618,478.836197 C427.501544,469.237493 430.502257,459.238842 433.302922,449.940097 C445.905916,408.745655 456.408411,366.651335 451.807318,323.157204 C450.904095,314.329329 449.230664,305.59727 446.80613,297.060725 C427.301497,228.369994 362.586125,174.577253 295.470183,155.279857 C243.957947,140.481854 185.143977,146.281071 142.333809,180.276484 C92.7220242,219.671168 65.4155381,279.76306 51.812307,340.254897 C46.0026323,365.657856 42.4215359,391.519133 41.1097648,417.544468 C39.9094797,445.640677 42.5100974,476.336535 56.0133048,501.433148 C68.4162509,524.430045 94.2223806,537.228318 120.02851,535.428561 C151.736042,533.228858 175.441673,508.732163 194.746258,485.835253 C224.653362,450.540016 240.057021,406.245993 244.858161,360.652145 C255.260632,262.56538 241.157282,148.780734 167.639819,76.4904883 C123.329294,32.9963572 62.1147541,7.1998381 0,6" id="megaphone-line" stroke="#00F200" stroke-width="10"></path>
    </g>
</svg>